===========Visit DUSTorrents.com for more Exclusives==============

Visit DusTorrents.com for more exclusives....

DusTorrents.com a Complete FreeLeech Site!! Registrations are absolutely FREE!!

Register by visiting..... [url]http://www.dustorrents.com/register.php[/url]

========================================================

[CENTER][B][FONT=Comic Sans MS][SIZE=5][COLOR="#FF0000"]Noorie (1979) 1/3 DvD RiP XviD 5.1 AC3 [Team DUS] 3rd Anniversary Release[/COLOR][/SIZE][/FONT][/B]

[img]http://img834.imageshack.us/img834/7674/dus5.png[/img]


[CODE]
[B][FONT=Comic Sans MS][COLOR="#FF0000"]Source                           : DvD 9 @ DDR Thanks.
Ripper                           : I Proud To Be An Indian [Team DUS][/COLOR][/FONT][/B]
General
Complete name                    : D:\Download\Noorie (1979) DvD RiP XviD 5.1 AC3 [Team DUS] 3rd Anniversary Release\Noorie (1979) DvD RiP XviD 5.1 AC3 [Team DUS] 3rd Anniversary Release.avi
Format                           : AVI
Format/Info                      : Audio Video Interleave
File size                        : 1.45 GiB
Duration                         : 1h 55mn
Overall bit rate                 : 1 803 Kbps

Video
ID                               : 0
Format                           : MPEG-4 Visual
Format profile                   : Advanced Simple@L5
Format settings, BVOP            : 2
Format settings, QPel            : Yes
Format settings, GMC             : No warppoints
Format settings, Matrix          : Default (H.263)
Codec ID                         : XVID
Codec ID/Hint                    : XviD
Duration                         : 1h 55mn
Bit rate                         : 1 346 Kbps
Width                            : 656 pixels
Height                           : 480 pixels
Display aspect ratio             : 4:3
Frame rate                       : 29.970 fps
Color space                      : YUV
Chroma subsampling               : 4:2:0
Bit depth                        : 8 bits
Scan type                        : Progressive
Compression mode                 : Lossy
Bits/(Pixel*Frame)               : 0.143
Stream size                      : 1.08 GiB (75%)
Writing library                  : XviD 1.2.1 (UTC 2008-12-04)

Audio
ID                               : 1
Format                           : AC-3
Format/Info                      : Audio Coding 3
Mode extension                   : CM (complete main)
Codec ID                         : 2000
Duration                         : 1h 55mn
Bit rate mode                    : Constant
Bit rate                         : 448 Kbps
Channel(s)                       : 6 channels
Channel positions                : Front: L C R, Side: L R, LFE
Sampling rate                    : 48.0 KHz
Bit depth                        : 16 bits
Compression mode                 : Lossy
Stream size                      : 370 MiB (25%)
Alignment                        : Aligned on interleaves
Interleave, duration             : 64 ms (1.92 video frames)
Interleave, preload duration     : 11264 ms
Title                            : VTS_02_1 T80 3_2ch 448Kbps DELAY 11211ms[/CODE]

[center][img]http://img21.imageshack.us/img21/3431/5vh6rom324kkccccthg.gif[/img]
 
http://img808.imageshack.us/img808/4545/vlcsnap2011081119h14m43.png
 
http://img13.imageshack.us/img13/5747/vlcsnap2011081119h17m06.png
 
http://img6.imageshack.us/img6/5516/vlcsnap2011081119h18m25.png
 
http://img718.imageshack.us/img718/1622/vlcsnap2011081119h18m54.png
 
http://img546.imageshack.us/img546/5650/vlcsnap2011081119h19m07.png
 
http://img829.imageshack.us/img829/3829/vlcsnap2011081119h21m18.png
 
http://img840.imageshack.us/img840/3166/vlcsnap2011081119h22m50.png
 
http://img694.imageshack.us/img694/9355/vlcsnap2011081119h23m28.png

:guns2::guns:[/center]